<?xml version="1.0" encoding="utf-8"?>
<!-- Generator: Adobe Illustrator 25.4.1, SVG Export Plug-In . SVG Version: 6.00 Build 0)  -->
<svg version="1.1" id="Layer_1" xmlns="http://www.w3.org/2000/svg" xmlns:xlink="http://www.w3.org/1999/xlink" x="0px" y="0px"
	 viewBox="0 0 72 72" style="enable-background:new 0 0 72 72;" xml:space="preserve">
<style type="text/css">
	.st0{clip-path:url(#SVGID_00000070102420850471473820000012375991586036391303_);}
	.st1{clip-path:url(#SVGID_00000183219808076496469470000007560900582952510372_);fill:#231F20;}
	.st2{fill:#5887DA;}
	.st3{fill:#3D95F6;}
	.st4{fill:#2379E7;}
	.st5{fill:#095DD7;}
</style>
<g>
	<path class="st4" d="M13.7,22.6c0-12.3,9.9-22.3,22.3-22.3c12.3,0,22.3,10,22.3,22.3v12.7h-9.6V22.6C48.7,15.5,43,9.8,36,9.8
		c-7,0-12.7,5.7-12.7,12.8H13.7z"/>
	<path class="st4" d="M32.1,29.2v6.1H4.4v-6.1c0-1.9,1.5-3.4,3.4-3.4h21C30.6,25.8,32.1,27.3,32.1,29.2z"/>
	<path class="st4" d="M67.6,62.2v6.1c0,1.9-1.5,3.4-3.4,3.4H7.8c-1.9,0-3.4-1.5-3.4-3.4v-6.1H67.6z"/>
	<path class="st4" d="M67.6,41.3v6.1H4.4v-9.5h59.9C66.1,37.9,67.6,39.4,67.6,41.3z"/>
	
		<rect x="31.2" y="23.2" transform="matrix(6.123234e-17 -1 1 6.123234e-17 -18.8276 90.8276)" class="st4" width="9.5" height="63.3"/>
</g>
</svg>
