<?xml version="1.0" encoding="utf-8"?>
<!-- Generator: Adobe Illustrator 25.4.1, SVG Export Plug-In . SVG Version: 6.00 Build 0)  -->
<svg version="1.1" id="Layer_1" xmlns="http://www.w3.org/2000/svg" xmlns:xlink="http://www.w3.org/1999/xlink" x="0px" y="0px"
	 viewBox="0 0 407.63 164.82" style="enable-background:new 0 0 407.63 164.82;" xml:space="preserve">
<style type="text/css">
	.st0{fill:#2A7DE1;}
</style>
<path class="st0" d="M129.78,100.59c-6,0-10.44-3.16-11.18-8.25h6.14c0.83,2.02,3.25,2.75,5.04,2.75c2.43,0,4.26-0.73,4.26-2.11
	c0-1.33-0.82-1.88-4.95-2.52c-4.21-0.64-9.85-1.78-9.85-7.05c0-3.71,3.25-7.56,10.08-7.56c5.4,0,9.44,2.93,10.21,7.38h-6.28
	c-0.37-1.1-1.7-1.97-3.94-1.97c-2.8,0-3.94,1.01-3.94,1.88c0,1.24,1.74,1.65,4.67,2.11c5.86,0.96,10.08,2.25,10.08,7.38
	C140.13,97.29,135.83,100.59,129.78,100.59z"/>
<path class="st0" d="M147.93,90.6c0.78,2.89,3.07,4.67,5.91,4.67c2.02,0,3.99-0.87,4.99-2.75h6.46c-1.37,4.81-5.54,8.06-11.41,8.06
	c-6.64,0-12.09-5.5-12.09-12.32c0-6.82,5.45-12.41,12.09-12.41c6.96,0,12.73,5.4,11.86,14.75H147.93z M159.75,85.66
	c-0.73-2.75-3.02-4.49-5.91-4.49c-2.75,0-4.95,1.74-5.82,4.49H159.75z"/>
<path class="st0" d="M217.49,88.27c0,6.83-4.99,12.32-12.09,12.32c-7.15,0-12.14-5.5-12.14-12.32c0-6.78,5.08-12.32,11.27-12.32
	c2.8,0,5.09,0.87,6.92,2.75V68.07h6.05V88.27z M205.4,81.53c-3.34,0-6.05,2.88-6.05,6.78c0,3.76,2.7,6.64,6.05,6.64
	c3.34,0,6.05-2.98,6.05-6.64C211.44,84.56,208.74,81.53,205.4,81.53z"/>
<path class="st0" d="M232.44,99.99c-6.92,0.73-10.58-3.43-10.58-9.89V68.25h6.05v8.2h4.26v5.36h-4.26v8.34
	c0,3.3,1.51,4.53,4.53,4.35V99.99z"/>
<path class="st0" d="M328.71,99.96c-6.92,0.73-10.58-3.43-10.58-9.89V68.25h6.05v21.86c0,3.3,1.51,4.53,4.53,4.35V99.96z"/>
<path class="st0" d="M241.89,100.04h-6.09V68.25h6.09V100.04z"/>
<path class="st0" d="M266.2,73.88h-6.05v-5.63h6.05V73.88z M266.2,100.04h-6.05V76.45h6.05V100.04z"/>
<path class="st0" d="M313.91,73.88h-6.05v-5.63h6.05V73.88z M313.91,100.04h-6.05V76.45h6.05V100.04z"/>
<path class="st0" d="M279.93,100.59c-6,0-10.44-3.16-11.18-8.25h6.14c0.83,2.02,3.25,2.75,5.04,2.75c2.43,0,4.26-0.73,4.26-2.11
	c0-1.33-0.83-1.88-4.95-2.52c-4.21-0.64-9.85-1.78-9.85-7.05c0-3.71,3.25-7.56,10.08-7.56c5.4,0,9.44,2.93,10.21,7.38h-6.27
	c-0.37-1.1-1.7-1.97-3.94-1.97c-2.8,0-3.94,1.01-3.94,1.88c0,1.24,1.74,1.65,4.67,2.11c5.86,0.96,10.08,2.25,10.08,7.38
	C290.28,97.29,285.98,100.59,279.93,100.59z"/>
<path class="st0" d="M334.85,90.6c0.78,2.89,3.07,4.67,5.91,4.67c2.02,0,3.99-0.87,4.99-2.75h6.46c-1.37,4.81-5.54,8.06-11.41,8.06
	c-6.64,0-12.09-5.5-12.09-12.32c0-6.82,5.45-12.41,12.09-12.41c6.96,0,12.73,5.4,11.86,14.75H334.85z M346.67,85.66
	c-0.73-2.75-3.02-4.49-5.91-4.49c-2.75,0-4.95,1.74-5.82,4.49H346.67z"/>
<path class="st0" d="M303.87,73.74v-5.4c-6.69-0.78-10.44,3.71-10.54,9.85v21.85h6.05V85.68h4.49v-5.63h-4.49v-1.85
	C299.43,74.94,300.89,73.56,303.87,73.74z"/>
<path class="st0" d="M180.44,75.91v-0.05h-11.3v24.18h6.05V81.8h4.95c3.62,0.21,4.07,3.17,4.07,4.45v13.79h6.05V86.39
	C190.26,80.43,186.61,76.21,180.44,75.91z"/>
<path class="st0" d="M247.1,75.91v-0.05h-11.3v24.18h6.05V81.8h4.95c3.62,0.21,4.07,3.17,4.07,4.45v13.79h6.05V86.39
	C256.91,80.43,253.27,76.21,247.1,75.91z"/>
<path class="st0" d="M60.99,72.09c0-9.49,7.62-17.22,17.15-17.22c9.51,0,17.22,7.71,17.22,17.22v9.78H88v-9.78
	c0-5.44-4.41-9.85-9.85-9.85c-5.41,0-9.78,4.38-9.78,9.85H60.99z"/>
<path class="st0" d="M75.21,76.19v5.68h-21.4v-5.68c0-0.92,0.75-1.67,1.67-1.67h18.07C74.46,74.52,75.21,75.27,75.21,76.19z"/>
<path class="st0" d="M102.56,102.61v5.68c0,0.92-0.75,1.67-1.67,1.67H55.47c-0.92,0-1.67-0.75-1.67-1.67v-5.68H102.56z"/>
<path class="st0" d="M102.56,85.55v5.68H53.81v-7.34h47.08C101.81,83.88,102.56,84.63,102.56,85.55z"/>
<rect x="74.51" y="72.54" transform="matrix(6.123234e-17 -1 1 6.123234e-17 -18.736 175.0987)" class="st0" width="7.34" height="48.75"/>
</svg>
