<svg id="Layer_1" data-name="Layer 1" xmlns="http://www.w3.org/2000/svg" viewBox="0 0 342.25 212.02"><defs><style>.cls-1{fill:#2a7de1;}</style></defs><path class="cls-1" d="M66,160.07c-6,0-10.44-3.16-11.17-8.25H61c.83,2,3.25,2.75,5,2.75,2.43,0,4.26-.73,4.26-2.11s-.82-1.88-4.94-2.52-9.85-1.78-9.85-7.05c0-3.71,3.25-7.56,10.07-7.56,5.41,0,9.44,2.93,10.22,7.38H69.47c-.36-1.1-1.69-2-3.94-2-2.79,0-3.94,1-3.94,1.87,0,1.24,1.75,1.65,4.68,2.11,5.86,1,10.07,2.25,10.07,7.38C76.34,156.77,72,160.07,66,160.07Z"/><path class="cls-1" d="M84.15,150.08a6,6,0,0,0,5.9,4.67,5.5,5.5,0,0,0,5-2.74h6.45c-1.37,4.8-5.54,8.06-11.4,8.06a12.37,12.37,0,0,1,0-24.74c7,0,12.73,5.41,11.86,14.75Zm11.81-5a5.92,5.92,0,0,0-5.91-4.49,6,6,0,0,0-5.81,4.49Z"/><path class="cls-1" d="M153.7,147.74c0,6.83-5,12.33-12.09,12.33a12,12,0,0,1-12.14-12.33c0-6.77,5.08-12.32,11.27-12.32a9.16,9.16,0,0,1,6.91,2.75V127.55h6ZM141.61,141c-3.35,0-6.05,2.89-6.05,6.78s2.7,6.64,6.05,6.64,6-3,6-6.64S145,141,141.61,141Z"/><path class="cls-1" d="M168.65,159.47c-6.91.73-10.58-3.43-10.58-9.89V127.73h6.05v8.2h4.26v5.36h-4.26v8.33c0,3.3,1.51,4.54,4.53,4.35Z"/><path class="cls-1" d="M264.92,159.43c-6.91.74-10.58-3.43-10.58-9.89V127.73h6v21.86c0,3.29,1.51,4.53,4.53,4.35Z"/><path class="cls-1" d="M178.1,159.52H172V127.73h6.09Z"/><path class="cls-1" d="M202.41,133.36h-6v-5.63h6Zm0,26.16h-6V135.93h6Z"/><path class="cls-1" d="M250.12,133.36h-6v-5.63h6Zm0,26.16h-6V135.93h6Z"/><path class="cls-1" d="M216.14,160.07c-6,0-10.44-3.16-11.17-8.25h6.14c.82,2,3.25,2.75,5,2.75,2.43,0,4.26-.73,4.26-2.11s-.82-1.88-4.94-2.52-9.85-1.78-9.85-7.05c0-3.71,3.25-7.56,10.08-7.56,5.4,0,9.43,2.93,10.21,7.38h-6.27c-.37-1.1-1.7-2-3.94-2-2.8,0-3.94,1-3.94,1.87,0,1.24,1.74,1.65,4.67,2.11,5.86,1,10.08,2.25,10.08,7.38C226.5,156.77,222.19,160.07,216.14,160.07Z"/><path class="cls-1" d="M271.06,150.08a6,6,0,0,0,5.91,4.67,5.47,5.47,0,0,0,5-2.74h6.46c-1.37,4.8-5.54,8.06-11.4,8.06a12.37,12.37,0,0,1,0-24.74c7,0,12.73,5.41,11.86,14.75Zm11.82-5a5.92,5.92,0,0,0-5.91-4.49,6,6,0,0,0-5.82,4.49Z"/><path class="cls-1" d="M240.08,133.22v-5.4c-6.68-.78-10.44,3.71-10.53,9.85v21.85h6V145.15h4.49v-5.63h-4.49v-1.85C235.64,134.41,237.11,133,240.08,133.22Z"/><path class="cls-1" d="M116.65,135.39v0h-11.3v24.18h6.05V141.28h4.95a4.11,4.11,0,0,1,4.07,4.45v13.79h6V145.87C126.47,139.9,122.82,135.69,116.65,135.39Z"/><path class="cls-1" d="M183.31,135.39v0H172v24.18h6.05V141.28H183a4.11,4.11,0,0,1,4.07,4.45v13.79h6V145.87C193.13,139.9,189.48,135.69,183.31,135.39Z"/><path class="cls-1" d="M154.7,72a17.19,17.19,0,1,1,34.38,0v9.78h-7.37V72a9.82,9.82,0,1,0-19.64,0Z"/><path class="cls-1" d="M154.55,67.44h5.68a1.67,1.67,0,0,1,1.67,1.67V87.17a1.67,1.67,0,0,1-1.67,1.67h-5.68a0,0,0,0,1,0,0V67.44A0,0,0,0,1,154.55,67.44Z" transform="translate(80.08 236.35) rotate(-90)"/><path class="cls-1" d="M169.89,81.85h5.68a0,0,0,0,1,0,0V130.6a0,0,0,0,1,0,0h-5.68a1.67,1.67,0,0,1-1.67-1.67V83.52A1.67,1.67,0,0,1,169.89,81.85Z" transform="translate(65.66 278.12) rotate(-90)"/><path class="cls-1" d="M168.22,63.13h7.34a0,0,0,0,1,0,0v47.08a1.67,1.67,0,0,1-1.67,1.67h-5.68a0,0,0,0,1,0,0V63.13A0,0,0,0,1,168.22,63.13Z" transform="translate(84.39 259.39) rotate(-90)"/><rect class="cls-1" x="168.22" y="72.49" width="7.34" height="48.75" transform="translate(75.03 268.76) rotate(-90)"/></svg>